<svg width="8" height="5" viewBox="0 0 8 5" fill="none" xmlns="http://www.w3.org/2000/svg">
<path d="M7.55792 1.39665L7.55568 1.39499C7.69235 1.24612 7.77734 1.05057 7.77734 0.833353C7.77734 0.373381 7.40402 2.92372e-05 6.94402 2.92171e-05C6.70069 2.92064e-05 6.48405 0.105589 6.33181 0.271685L6.32958 0.270029L3.88858 2.93328L1.44697 0.27L1.44476 0.271655C1.2931 0.10556 1.07644 -2.92906e-07 0.833106 -3.03542e-07C0.373106 -3.2365e-07 -0.0002165 0.373323 -0.00021652 0.833325C-0.00021653 1.05054 0.0847768 1.24609 0.220866 1.39496L0.218658 1.39662L3.27413 4.72986C3.43247 4.90153 3.65469 4.99986 3.88855 4.99986C4.12241 4.99986 4.34466 4.90153 4.50297 4.72986L7.55792 1.39665Z" fill="#C6A464"/>
</svg>
