<svg width="22" height="21" viewBox="0 0 22 21" fill="none" xmlns="http://www.w3.org/2000/svg">
<mask id="path-1-inside-1" fill="white">
<path d="M1.74527 2.05512C2.88411 0.729882 4.44676 0 6.14571 0C7.41563 0 8.57864 0.430762 9.60251 1.28022C10.1191 1.709 10.5873 2.23359 11 2.84587C11.4126 2.23377 11.8809 1.709 12.3977 1.28022C13.4214 0.430762 14.5844 0 15.8543 0C17.5532 0 19.1161 0.729882 20.2549 2.05512C21.3801 3.36488 22 5.1542 22 7.0937C22 9.08994 21.3066 10.9173 19.818 12.8445C18.4863 14.5685 16.5723 16.3185 14.3559 18.345C13.5991 19.0371 12.7412 19.8215 11.8505 20.6571C11.6152 20.8783 11.3132 21 11 21C10.687 21 10.3848 20.8783 10.1499 20.6575C9.25909 19.8217 8.40073 19.0369 7.64357 18.3445C5.42749 16.3183 3.51353 14.5685 2.18184 12.8443C0.693207 10.9173 0 9.08994 0 7.09352C0 5.1542 0.619858 3.36488 1.74527 2.05512Z"/>
</mask>
<path d="M1.74527 2.05512C2.88411 0.729882 4.44676 0 6.14571 0C7.41563 0 8.57864 0.430762 9.60251 1.28022C10.1191 1.709 10.5873 2.23359 11 2.84587C11.4126 2.23377 11.8809 1.709 12.3977 1.28022C13.4214 0.430762 14.5844 0 15.8543 0C17.5532 0 19.1161 0.729882 20.2549 2.05512C21.3801 3.36488 22 5.1542 22 7.0937C22 9.08994 21.3066 10.9173 19.818 12.8445C18.4863 14.5685 16.5723 16.3185 14.3559 18.345C13.5991 19.0371 12.7412 19.8215 11.8505 20.6571C11.6152 20.8783 11.3132 21 11 21C10.687 21 10.3848 20.8783 10.1499 20.6575C9.25909 19.8217 8.40073 19.0369 7.64357 18.3445C5.42749 16.3183 3.51353 14.5685 2.18184 12.8443C0.693207 10.9173 0 9.08994 0 7.09352C0 5.1542 0.619858 3.36488 1.74527 2.05512Z" stroke="#C6A464" stroke-width="4" mask="url(#path-1-inside-1)"/>
</svg>
