<svg width="22" height="21" viewBox="0 0 22 21" fill="none" xmlns="http://www.w3.org/2000/svg">
<path d="M11 4.635L11.8292 3.40478C12.1939 2.86371 12.5997 2.412 13.0362 2.04982L13.0362 2.04978C13.8897 1.34157 14.8293 1 15.8543 1C17.2523 1 18.5413 1.59543 19.4964 2.70678L11 4.635ZM11 4.635L10.1708 3.40483M11 4.635L10.1708 3.40483M10.1708 3.40483C9.80591 2.86352 9.40029 2.41194 8.96386 2.04972C8.11021 1.34153 7.17061 1 6.14571 1C4.74771 1 3.45884 1.59543 2.50373 2.70684C1.55347 3.81275 1 5.36193 1 7.09352C1 8.82352 1.58934 10.4415 2.97322 12.233L2.97325 12.2331C4.2407 13.874 6.08095 15.5608 8.31834 17.6064L8.31843 17.6065L8.33866 17.625C9.0904 18.3125 9.94595 19.0949 10.8341 19.9282L10.8346 19.9287C10.8903 19.9811 10.9498 20 11 20C11.0501 20 11.1094 19.9813 11.1657 19.9284L11.1663 19.9278C12.0611 19.0884 12.9223 18.3009 13.6779 17.61L13.6811 17.607L13.6811 17.607M10.1708 3.40483L13.6811 17.607M13.6811 17.607C15.9188 15.5611 17.7591 13.874 19.0266 12.2332M13.6811 17.607L19.4965 2.70688C20.4465 3.8128 21 5.36197 21 7.0937C21 8.82345 20.4105 10.4415 19.0266 12.2332M19.0266 12.2332L19.818 12.8445L19.0266 12.2332Z" stroke="#C6A464" stroke-width="2"/>
</svg>
