<?xml version="1.0" encoding="UTF-8"?>
<!DOCTYPE svg PUBLIC "-//W3C//DTD SVG 1.1//EN" "http://www.w3.org/Graphics/SVG/1.1/DTD/svg11.dtd">
<!-- Creator: CorelDRAW X7 -->
<svg xmlns="http://www.w3.org/2000/svg" xml:space="preserve" width="8.202mm" height="8.202mm" version="1.1" style="shape-rendering:geometricPrecision; text-rendering:geometricPrecision; image-rendering:optimizeQuality; fill-rule:evenodd; clip-rule:evenodd"
viewBox="0 0 114 114"
 xmlns:xlink="http://www.w3.org/1999/xlink">
 <defs>
  <style type="text/css">
   <![CDATA[
    .str0 {stroke:black;stroke-width:5.16739}
    .fil0 {fill:none}
    .fil1 {fill:black}
   ]]>
  </style>
 </defs>
 <g id="Layer_x0020_1">
  <metadata id="CorelCorpID_0Corel-Layer"/>
  <circle class="fil0 str0" cx="57" cy="57" r="55"/>
  <path class="fil1" d="M74 54l-13 0 0 -14c0,-2 -2,-3 -4,-3 -2,0 -3,1 -3,3l0 14 -14 0c-2,0 -3,1 -3,3 0,2 1,4 3,4l14 0 0 13c0,2 1,4 3,4 2,0 4,-2 4,-4l0 -13 13 0c2,0 4,-2 4,-4 0,-2 -2,-3 -4,-3z"/>
 </g>
</svg>
